<svg width="35" height="44" viewBox="0 0 35 44" fill="none" xmlns="http://www.w3.org/2000/svg">
<path d="M17.1875 0C12.6307 0.0051694 8.26197 1.81765 5.03981 5.03981C1.81765 8.26197 0.0051694 12.6307 0 17.1875C0 31.8945 15.625 43.002 16.291 43.4668C16.5537 43.6508 16.8667 43.7496 17.1875 43.7496C17.5083 43.7496 17.8213 43.6508 18.084 43.4668C18.75 43.002 34.375 31.8945 34.375 17.1875C34.3698 12.6307 32.5573 8.26197 29.3352 5.03981C26.113 1.81765 21.7443 0.0051694 17.1875 0Z" fill="#F3BA5E"/>
<circle cx="17" cy="17" r="13" fill="white"/>
<path d="M16.5609 22.7L12.4109 25.2C12.2275 25.3167 12.0359 25.3667 11.8359 25.35C11.6359 25.3333 11.4609 25.2667 11.3109 25.15C11.1609 25.0333 11.0442 24.8877 10.9609 24.713C10.8775 24.5383 10.8609 24.3423 10.9109 24.125L12.0109 19.4L8.33588 16.225C8.16921 16.075 8.06521 15.904 8.02388 15.712C7.98254 15.52 7.99488 15.3327 8.06088 15.15C8.12688 14.9673 8.22688 14.8173 8.36088 14.7C8.49488 14.5827 8.67821 14.5077 8.91088 14.475L13.7609 14.05L15.6359 9.6C15.7192 9.4 15.8485 9.25 16.0239 9.15C16.1992 9.05 16.3782 9 16.5609 9C16.7435 9 16.9225 9.05 17.0979 9.15C17.2732 9.25 17.4025 9.4 17.4859 9.6L19.3609 14.05L24.2109 14.475C24.4442 14.5083 24.6275 14.5833 24.7609 14.7C24.8942 14.8167 24.9942 14.9667 25.0609 15.15C25.1275 15.3333 25.1402 15.521 25.0989 15.713C25.0575 15.905 24.9532 16.0757 24.7859 16.225L21.1109 19.4L22.2109 24.125C22.2609 24.3417 22.2442 24.5377 22.1609 24.713C22.0775 24.8883 21.9609 25.034 21.8109 25.15C21.6609 25.266 21.4859 25.3327 21.2859 25.35C21.0859 25.3673 20.8942 25.3173 20.7109 25.2L16.5609 22.7Z" fill="#F3BA5E"/>
</svg>
