<svg width="24" height="24" viewBox="0 0 24 24" fill="none" xmlns="http://www.w3.org/2000/svg">
<rect x="0.25" y="0.25" width="23.5" height="23.5" rx="11.75" fill="white"/>
<rect x="0.25" y="0.25" width="23.5" height="23.5" rx="11.75" stroke="#455066" stroke-width="0.5"/>
<path fill-rule="evenodd" clip-rule="evenodd" d="M12 5C9.3603 5 8.0401 5 7.2204 5.8204C6.4756 6.5645 6.407 7.7202 6.4 9.9H5.7C5.51435 9.9 5.3363 9.97375 5.20503 10.105C5.07375 10.2363 5 10.4143 5 10.6V11.3C5 11.4087 5.0253 11.5159 5.0739 11.613C5.1225 11.7102 5.19306 11.7948 5.28 11.86L6.4 12.7C6.407 14.8798 6.4756 16.0355 7.2204 16.7796C7.3898 16.9497 7.5802 17.0841 7.8 17.1905V18.3C7.8 18.4857 7.87375 18.6637 8.00503 18.795C8.1363 18.9263 8.31435 19 8.5 19H9.55C9.73565 19 9.9137 18.9263 10.045 18.795C10.1762 18.6637 10.25 18.4857 10.25 18.3V17.5874C10.7589 17.6 11.3378 17.6 12 17.6C12.6622 17.6 13.2411 17.6 13.75 17.5874V18.3C13.75 18.4857 13.8237 18.6637 13.955 18.795C14.0863 18.9263 14.2643 19 14.45 19H15.5C15.6857 19 15.8637 18.9263 15.995 18.795C16.1263 18.6637 16.2 18.4857 16.2 18.3V17.1905C16.4151 17.0874 16.6111 16.9485 16.7796 16.7796C17.5244 16.0355 17.5937 14.8798 17.6 12.7L18.72 11.86C18.8069 11.7948 18.8775 11.7102 18.9261 11.613C18.9747 11.5159 19 11.4087 19 11.3V10.6C19 10.4143 18.9263 10.2363 18.795 10.105C18.6637 9.97375 18.4857 9.9 18.3 9.9H17.6C17.593 7.7202 17.5244 6.5645 16.7796 5.8204C15.9599 5 14.6397 5 12 5ZM7.45 10.25C7.45 11.2398 7.45 11.7347 7.758 12.042C8.0653 12.35 8.5602 12.35 9.55 12.35H14.45C15.4398 12.35 15.9347 12.35 16.242 12.042C16.55 11.7347 16.55 11.2398 16.55 10.25V8.5C16.55 7.5102 16.55 7.0153 16.242 6.708C15.9354 6.4 15.4405 6.4 14.45 6.4H9.55C8.5602 6.4 8.0653 6.4 7.758 6.708C7.45 7.0146 7.45 7.5095 7.45 8.5V10.25ZM7.975 14.8C7.975 14.6608 8.03031 14.5272 8.12877 14.4288C8.22723 14.3303 8.36076 14.275 8.5 14.275H9.55C9.68924 14.275 9.82277 14.3303 9.92123 14.4288C10.0197 14.5272 10.075 14.6608 10.075 14.8C10.075 14.9392 10.0197 15.0728 9.92123 15.1712C9.82277 15.2697 9.68924 15.325 9.55 15.325H8.5C8.36076 15.325 8.22723 15.2697 8.12877 15.1712C8.03031 15.0728 7.975 14.9392 7.975 14.8ZM16.025 14.8C16.025 14.6608 15.9697 14.5272 15.8712 14.4288C15.7728 14.3303 15.6392 14.275 15.5 14.275H14.45C14.3108 14.275 14.1772 14.3303 14.0788 14.4288C13.9803 14.5272 13.925 14.6608 13.925 14.8C13.925 14.9392 13.9803 15.0728 14.0788 15.1712C14.1772 15.2697 14.3108 15.325 14.45 15.325H15.5C15.6392 15.325 15.7728 15.2697 15.8712 15.1712C15.9697 15.0728 16.025 14.9392 16.025 14.8Z" fill="#455066"/>
</svg>
