<svg width="34" height="34" viewBox="0 0 34 34" fill="none" xmlns="http://www.w3.org/2000/svg">
<circle cx="17" cy="17" r="16" fill="white" stroke="#F56542" stroke-width="2"/>
<path d="M16 23C14.05 23 12.396 22.321 11.038 20.963C9.68 19.605 9.00067 17.9507 9 16V10C9 9.45 9.196 8.97933 9.588 8.588C9.98 8.19667 10.4507 8.00067 11 8H23.5C24.4667 8 25.2917 8.34167 25.975 9.025C26.6583 9.70833 27 10.5333 27 11.5C27 12.4667 26.6583 13.2917 25.975 13.975C25.2917 14.6583 24.4667 15 23.5 15H23V16C23 17.95 22.321 19.6043 20.963 20.963C19.605 22.3217 17.9507 23.0007 16 23ZM11 13H21V10H11V13ZM23 13H23.5C23.9167 13 24.271 12.8543 24.563 12.563C24.855 12.2717 25.0007 11.9173 25 11.5C24.9993 11.0827 24.8537 10.7287 24.563 10.438C24.2723 10.1473 23.918 10.0013 23.5 10H23V13ZM9 26V24H25V26H9Z" fill="#F56542"/>
</svg>
