<svg width="35" height="44" viewBox="0 0 35 44" fill="none" xmlns="http://www.w3.org/2000/svg">
<path d="M17.1875 0C12.6307 0.0051694 8.26197 1.81765 5.03981 5.03981C1.81765 8.26197 0.0051694 12.6307 0 17.1875C0 31.8945 15.625 43.002 16.291 43.4668C16.5537 43.6508 16.8667 43.7496 17.1875 43.7496C17.5083 43.7496 17.8213 43.6508 18.084 43.4668C18.75 43.002 34.375 31.8945 34.375 17.1875C34.3698 12.6307 32.5573 8.26197 29.3352 5.03981C26.113 1.81765 21.7443 0.0051694 17.1875 0Z" fill="#E08AD1"/>
<circle cx="17" cy="17" r="13" fill="white"/>
<path d="M21.2778 17C20.9684 17 20.6716 16.8771 20.4528 16.6583C20.234 16.4395 20.1111 16.1428 20.1111 15.8333C20.1111 15.5239 20.234 15.2272 20.4528 15.0084C20.6716 14.7896 20.9684 14.6667 21.2778 14.6667C21.5872 14.6667 21.8839 14.7896 22.1027 15.0084C22.3215 15.2272 22.4444 15.5239 22.4444 15.8333C22.4444 16.1428 22.3215 16.4395 22.1027 16.6583C21.8839 16.8771 21.5872 17 21.2778 17ZM18.9444 13.8889C18.635 13.8889 18.3383 13.766 18.1195 13.5472C17.9007 13.3284 17.7778 13.0316 17.7778 12.7222C17.7778 12.4128 17.9007 12.1161 18.1195 11.8973C18.3383 11.6785 18.635 11.5556 18.9444 11.5556C19.2539 11.5556 19.5506 11.6785 19.7694 11.8973C19.9882 12.1161 20.1111 12.4128 20.1111 12.7222C20.1111 13.0316 19.9882 13.3284 19.7694 13.5472C19.5506 13.766 19.2539 13.8889 18.9444 13.8889ZM15.0556 13.8889C14.7461 13.8889 14.4494 13.766 14.2306 13.5472C14.0118 13.3284 13.8889 13.0316 13.8889 12.7222C13.8889 12.4128 14.0118 12.1161 14.2306 11.8973C14.4494 11.6785 14.7461 11.5556 15.0556 11.5556C15.365 11.5556 15.6617 11.6785 15.8805 11.8973C16.0993 12.1161 16.2222 12.4128 16.2222 12.7222C16.2222 13.0316 16.0993 13.3284 15.8805 13.5472C15.6617 13.766 15.365 13.8889 15.0556 13.8889ZM12.7222 17C12.4128 17 12.1161 16.8771 11.8973 16.6583C11.6785 16.4395 11.5556 16.1428 11.5556 15.8333C11.5556 15.5239 11.6785 15.2272 11.8973 15.0084C12.1161 14.7896 12.4128 14.6667 12.7222 14.6667C13.0316 14.6667 13.3284 14.7896 13.5472 15.0084C13.766 15.2272 13.8889 15.5239 13.8889 15.8333C13.8889 16.1428 13.766 16.4395 13.5472 16.6583C13.3284 16.8771 13.0316 17 12.7222 17ZM17 10C15.1435 10 13.363 10.7375 12.0503 12.0503C10.7375 13.363 10 15.1435 10 17C10 18.8565 10.7375 20.637 12.0503 21.9497C13.363 23.2625 15.1435 24 17 24C17.3094 24 17.6062 23.8771 17.825 23.6583C18.0438 23.4395 18.1667 23.1428 18.1667 22.8333C18.1667 22.53 18.05 22.2578 17.8633 22.0556C17.6844 21.8456 17.5678 21.5733 17.5678 21.2778C17.5678 20.9684 17.6907 20.6716 17.9095 20.4528C18.1283 20.234 18.425 20.1111 18.7344 20.1111H20.1111C21.1425 20.1111 22.1317 19.7014 22.861 18.9721C23.5903 18.2428 24 17.2536 24 16.2222C24 12.7844 20.8656 10 17 10Z" fill="#E08AD1"/>
</svg>
