<svg width="35" height="44" viewBox="0 0 35 44" fill="none" xmlns="http://www.w3.org/2000/svg">
<path d="M17.1875 0C12.6307 0.0051694 8.26197 1.81765 5.03981 5.03981C1.81765 8.26197 0.0051694 12.6307 0 17.1875C0 31.8945 15.625 43.002 16.291 43.4668C16.5537 43.6508 16.8667 43.7496 17.1875 43.7496C17.5083 43.7496 17.8213 43.6508 18.084 43.4668C18.75 43.002 34.375 31.8945 34.375 17.1875C34.3698 12.6307 32.5573 8.26197 29.3352 5.03981C26.113 1.81765 21.7443 0.0051694 17.1875 0Z" fill="#66C7E9"/>
<circle cx="17" cy="17" r="13" fill="white"/>
<path d="M25 16.25V23H23.4V20.75H10.6V23H9V11H10.6V18.5H17V13.25H21.8C22.6487 13.25 23.4626 13.5661 24.0627 14.1287C24.6629 14.6913 25 15.4544 25 16.25ZM13.8 17.75C13.1635 17.75 12.553 17.5129 12.1029 17.091C11.6529 16.669 11.4 16.0967 11.4 15.5C11.4 14.9033 11.6529 14.331 12.1029 13.909C12.553 13.4871 13.1635 13.25 13.8 13.25C14.4365 13.25 15.047 13.4871 15.4971 13.909C15.9471 14.331 16.2 14.9033 16.2 15.5C16.2 16.0967 15.9471 16.669 15.4971 17.091C15.047 17.5129 14.4365 17.75 13.8 17.75Z" fill="#66C7E9"/>
</svg>
