<svg width="35" height="44" viewBox="0 0 35 44" fill="none" xmlns="http://www.w3.org/2000/svg">
<path d="M17.1875 0C12.6307 0.0051694 8.26197 1.81765 5.03981 5.03981C1.81765 8.26197 0.0051694 12.6307 0 17.1875C0 31.8945 15.625 43.002 16.291 43.4668C16.5537 43.6508 16.8667 43.7496 17.1875 43.7496C17.5083 43.7496 17.8213 43.6508 18.084 43.4668C18.75 43.002 34.375 31.8945 34.375 17.1875C34.3698 12.6307 32.5573 8.26197 29.3352 5.03981C26.113 1.81765 21.7443 0.0051694 17.1875 0Z" fill="#8874E3"/>
<circle cx="17" cy="17" r="13" fill="white"/>
<path d="M22.7703 21.29H10.7297C10.3267 21.29 10 21.6167 10 22.0197V22.7494C10 23.1525 10.3267 23.4792 10.7297 23.4792H22.7703C23.1733 23.4792 23.5 23.1525 23.5 22.7494V22.0197C23.5 21.6167 23.1733 21.29 22.7703 21.29Z" stroke="#8874E3" stroke-width="1.5" stroke-linecap="round" stroke-linejoin="round"/>
<path d="M11.8243 15.0858V21.2958M21.6757 15.0858V21.2958M18.5743 15.0858V21.2958M14.9257 15.0858V21.2958M16.0495 10.1791L10.3795 13.2805C10.2646 13.3433 10.1688 13.4359 10.102 13.5485C10.0353 13.6611 10 13.7895 10 13.9204V14.648C10 14.7641 10.0461 14.8755 10.1282 14.9576C10.2104 15.0397 10.3217 15.0858 10.4378 15.0858H23.0622C23.1783 15.0858 23.2896 15.0397 23.3718 14.9576C23.4539 14.8755 23.5 14.7641 23.5 14.648V13.9204C23.5 13.7895 23.4647 13.6611 23.398 13.5485C23.3312 13.4359 23.2354 13.3433 23.1205 13.2805L17.4505 10.1791C17.2357 10.0616 16.9948 10 16.75 10C16.5052 10 16.2643 10.0616 16.0495 10.1791Z" stroke="#8874E3" stroke-width="1.5" stroke-linecap="round" stroke-linejoin="round"/>
</svg>
