<svg width="34" height="34" viewBox="0 0 34 34" fill="none" xmlns="http://www.w3.org/2000/svg">
<circle cx="17" cy="17" r="16" fill="white" stroke="#F56542" stroke-width="2"/>
<path d="M16.5 17.25C16.5 17.0511 16.579 16.8603 16.7197 16.7197C16.8603 16.579 17.0511 16.5 17.25 16.5C17.4489 16.5 17.6397 16.421 17.7803 16.2803C17.921 16.1397 18 15.9489 18 15.75C18 15.5511 17.921 15.3603 17.7803 15.2197C17.6397 15.079 17.4489 15 17.25 15C16.6533 15 16.081 15.2371 15.659 15.659C15.2371 16.081 15 16.6533 15 17.25C15 17.4489 15.079 17.6397 15.2197 17.7803C15.3603 17.921 15.5511 18 15.75 18C15.9489 18 16.1397 17.921 16.2803 17.7803C16.421 17.6397 16.5 17.4489 16.5 17.25ZM18.5 7C15.383 7 12.688 8.825 11.215 11.494C10.975 11.929 10.606 12.307 10.159 12.609C8.25 13.901 7 16.18 7 18.75C7 22.696 9.967 26 13.75 26C14.0747 26 14.393 25.976 14.705 25.928C15.5794 25.7937 16.474 25.9262 17.272 26.308C18.3956 26.8608 19.6508 27.0901 20.8972 26.9704C22.1437 26.8507 23.3322 26.3866 24.33 25.6301C25.3278 24.8735 26.0955 23.8543 26.5473 22.6864C26.999 21.5186 27.117 20.2481 26.888 19.017C26.8167 18.6609 26.8086 18.295 26.864 17.936C26.9547 17.3953 27 16.8417 27 16.275C27 11.221 23.26 7 18.5 7ZM22.25 17.5C22.25 18.1238 22.1271 18.7414 21.8884 19.3177C21.6497 19.894 21.2998 20.4177 20.8588 20.8588C20.4177 21.2998 19.894 21.6497 19.3177 21.8884C18.7414 22.1271 18.1238 22.25 17.5 22.25C16.8762 22.25 16.2586 22.1271 15.6823 21.8884C15.106 21.6497 14.5823 21.2998 14.1412 20.8588C13.7002 20.4177 13.3503 19.894 13.1116 19.3177C12.8729 18.7414 12.75 18.1238 12.75 17.5C12.75 16.2402 13.2504 15.032 14.1412 14.1412C15.032 13.2504 16.2402 12.75 17.5 12.75C18.7598 12.75 19.968 13.2504 20.8588 14.1412C21.7496 15.032 22.25 16.2402 22.25 17.5Z" fill="#F56542"/>
</svg>
