<svg width="24" height="24" viewBox="0 0 24 24" fill="none" xmlns="http://www.w3.org/2000/svg">
<rect x="0.25" y="0.25" width="23.5" height="23.5" rx="11.75" fill="white"/>
<rect x="0.25" y="0.25" width="23.5" height="23.5" rx="11.75" stroke="#455066" stroke-width="0.5"/>
<path d="M6 14.9474V7.94737C6 7.2965 6.172 6.77751 6.516 6.39043C6.86 6.00334 7.313 5.7086 7.875 5.50622C8.437 5.30383 9.07775 5.16874 9.79725 5.10095C10.5168 5.03316 11.251 4.99951 12 5.00001C12.825 5.00001 13.6033 5.0339 14.3347 5.10169C15.0662 5.16948 15.7038 5.30457 16.2472 5.50695C16.7907 5.70934 17.2187 6.00408 17.5312 6.39116C17.8437 6.77825 18 7.29699 18 7.94737V14.9474C18 15.6719 17.747 16.283 17.241 16.7806C16.735 17.2782 16.113 17.5268 15.375 17.5263L16.5 18.6316V19H15L13.5 17.5263H10.5L9 19H7.5V18.6316L8.625 17.5263C7.8875 17.5263 7.2655 17.2778 6.759 16.7806C6.2525 16.2835 5.9995 15.6724 6 14.9474ZM12 6.47369C10.675 6.47369 9.70625 6.55057 9.09375 6.70432C8.48125 6.85807 8.0625 7.02681 7.8375 7.21053H16.2375C16.05 7.00176 15.647 6.82688 15.0285 6.6859C14.41 6.54492 13.4005 6.47418 12 6.47369ZM7.5 10.8947H11.25V8.68421H7.5V10.8947ZM15.375 12.3684H7.5H16.5H15.375ZM12.75 10.8947H16.5V8.68421H12.75V10.8947ZM9.375 15.3158C9.7 15.3158 9.96875 15.2114 10.1813 15.0026C10.3938 14.7939 10.5 14.5298 10.5 14.2105C10.5 13.8912 10.3938 13.6272 10.1813 13.4184C9.96875 13.2097 9.7 13.1053 9.375 13.1053C9.05 13.1053 8.78125 13.2097 8.56875 13.4184C8.35625 13.6272 8.25 13.8912 8.25 14.2105C8.25 14.5298 8.35625 14.7939 8.56875 15.0026C8.78125 15.2114 9.05 15.3158 9.375 15.3158ZM14.625 15.3158C14.95 15.3158 15.2188 15.2114 15.4313 15.0026C15.6438 14.7939 15.75 14.5298 15.75 14.2105C15.75 13.8912 15.6438 13.6272 15.4313 13.4184C15.2188 13.2097 14.95 13.1053 14.625 13.1053C14.3 13.1053 14.0313 13.2097 13.8188 13.4184C13.6063 13.6272 13.5 13.8912 13.5 14.2105C13.5 14.5298 13.6063 14.7939 13.8188 15.0026C14.0313 15.2114 14.3 15.3158 14.625 15.3158ZM8.625 16.0526H15.375C15.7 16.0526 15.9688 15.9482 16.1813 15.7395C16.3938 15.5307 16.5 15.2667 16.5 14.9474V12.3684H7.5V14.9474C7.5 15.2667 7.60625 15.5307 7.81875 15.7395C8.03125 15.9482 8.3 16.0526 8.625 16.0526ZM12 7.21053H16.2375H7.8375H12Z" fill="#455066"/>
</svg>
