<svg width="24" height="24" viewBox="0 0 24 24" fill="none" xmlns="http://www.w3.org/2000/svg">
<path d="M11 18C9.05 18 7.396 17.321 6.038 15.963C4.68 14.605 4.00067 12.9507 4 11V5C4 4.45 4.196 3.97933 4.588 3.588C4.98 3.19667 5.45067 3.00067 6 3H18.5C19.4667 3 20.2917 3.34167 20.975 4.025C21.6583 4.70833 22 5.53333 22 6.5C22 7.46667 21.6583 8.29167 20.975 8.975C20.2917 9.65833 19.4667 10 18.5 10H18V11C18 12.95 17.321 14.6043 15.963 15.963C14.605 17.3217 12.9507 18.0007 11 18ZM6 8H16V5H6V8ZM18 8H18.5C18.9167 8 19.271 7.85433 19.563 7.563C19.855 7.27167 20.0007 6.91733 20 6.5C19.9993 6.08267 19.8537 5.72867 19.563 5.438C19.2723 5.14733 18.918 5.00133 18.5 5H18V8ZM4 21V19H20V21H4Z" fill="black"/>
</svg>
