<svg width="24" height="24" viewBox="0 0 24 24" fill="none" xmlns="http://www.w3.org/2000/svg">
<path d="M11.5 12.25C11.5 12.0511 11.579 11.8603 11.7197 11.7197C11.8603 11.579 12.0511 11.5 12.25 11.5C12.4489 11.5 12.6397 11.421 12.7803 11.2803C12.921 11.1397 13 10.9489 13 10.75C13 10.5511 12.921 10.3603 12.7803 10.2197C12.6397 10.079 12.4489 10 12.25 10C11.6533 10 11.081 10.2371 10.659 10.659C10.2371 11.081 10 11.6533 10 12.25C10 12.4489 10.079 12.6397 10.2197 12.7803C10.3603 12.921 10.5511 13 10.75 13C10.9489 13 11.1397 12.921 11.2803 12.7803C11.421 12.6397 11.5 12.4489 11.5 12.25ZM13.5 2C10.383 2 7.688 3.825 6.215 6.494C5.975 6.929 5.606 7.307 5.159 7.609C3.25 8.901 2 11.18 2 13.75C2 17.696 4.967 21 8.75 21C9.07467 21 9.393 20.976 9.705 20.928C10.5794 20.7937 11.474 20.9262 12.272 21.308C13.3956 21.8608 14.6508 22.0901 15.8972 21.9704C17.1437 21.8507 18.3322 21.3866 19.33 20.6301C20.3278 19.8735 21.0955 18.8543 21.5473 17.6864C21.999 16.5186 22.117 15.2481 21.888 14.017C21.8167 13.6609 21.8086 13.295 21.864 12.936C21.9547 12.3953 22 11.8417 22 11.275C22 6.221 18.26 2 13.5 2ZM17.25 12.5C17.25 13.1238 17.1271 13.7414 16.8884 14.3177C16.6497 14.894 16.2998 15.4177 15.8588 15.8588C15.4177 16.2998 14.894 16.6497 14.3177 16.8884C13.7414 17.1271 13.1238 17.25 12.5 17.25C11.8762 17.25 11.2586 17.1271 10.6823 16.8884C10.106 16.6497 9.58232 16.2998 9.14124 15.8588C8.70016 15.4177 8.35028 14.894 8.11157 14.3177C7.87286 13.7414 7.75 13.1238 7.75 12.5C7.75 11.2402 8.25045 10.032 9.14124 9.14124C10.032 8.25045 11.2402 7.75 12.5 7.75C13.7598 7.75 14.968 8.25045 15.8588 9.14124C16.7496 10.032 17.25 11.2402 17.25 12.5Z" fill="black"/>
</svg>
